HIERARCHY
ROOT root     
{
	OFFSET 0.0000 0.0000 0.0000
	CHANNELS 6 Xposition Yposition Zposition Zrotation Yrotation Xrotation
	JOINT pelvis   
	{
		OFFSET 0.0000 0.0000 0.0000
		CHANNELS 3 Zrotation Yrotation Xrotation
		JOINT thorax   
		{
			OFFSET 0.0000 23.0750 -5.0000
			CHANNELS 3 Zrotation Yrotation Xrotation
			JOINT rclavicle
			{
				OFFSET 0.0000 28.0009 0.0000
				CHANNELS 3 Zrotation Yrotation Xrotation
				JOINT rhumerus 
				{
					OFFSET -18.5725 5.5939 0.0000
					CHANNELS 3 Zrotation Yrotation Xrotation
					JOINT rradius  
					{
						OFFSET -24.8459 0.0000 0.0000
						CHANNELS 3 Zrotation Yrotation Xrotation
						JOINT rhand    
						{
							OFFSET -24.5477 0.0000 0.0000
							CHANNELS 3 Zrotation Yrotation Xrotation
							End Site
							{
								OFFSET -8.1826 0.0000 0.0000
							}
						}
					}
				}
			}
			JOINT lclavicle
			{
				OFFSET 0.0000 28.0009 0.0000
				CHANNELS 3 Zrotation Yrotation Xrotation
				JOINT lhumerus 
				{
					OFFSET 18.5725 5.5939 0.0000
					CHANNELS 3 Zrotation Yrotation Xrotation
					JOINT lradius  
					{
						OFFSET 24.8459 0.0000 0.0000
						CHANNELS 3 Zrotation Yrotation Xrotation
						JOINT lhand    
						{
							OFFSET 24.5477 0.0000 0.0000
							CHANNELS 3 Zrotation Yrotation Xrotation
							End Site
							{
								OFFSET 8.1826 0.0000 0.0000
							}
						}
					}
				}
			}
			JOINT head     
			{
				OFFSET 0.0000 35.2030 0.0000
				CHANNELS 3 Zrotation Yrotation Xrotation
				End Site
				{
					OFFSET 0.0000 11.7343 0.0000
				}
			}
		}
		JOINT rfemur   
		{
			OFFSET -8.2817 0.0000 0.0000
			CHANNELS 3 Zrotation Yrotation Xrotation
			JOINT rtibia   
			{
				OFFSET 0.0000 -43.3627 0.0000
				CHANNELS 3 Zrotation Yrotation Xrotation
				JOINT rfoot    
				{
					OFFSET 0.0000 -38.2947 0.0000
					CHANNELS 3 Zrotation Yrotation Xrotation
					JOINT rtoes    
					{
						OFFSET 0.0000 0.0000 16.6054
						CHANNELS 3 Zrotation Yrotation Xrotation
						End Site
						{
							OFFSET 0.0000 0.0000 5.5351
						}
					}
				}
			}
		}
		JOINT lfemur   
		{
			OFFSET 8.2817 0.0000 0.0000
			CHANNELS 3 Zrotation Yrotation Xrotation
			JOINT ltibia   
			{
				OFFSET 0.0000 -43.3627 0.0000
				CHANNELS 3 Zrotation Yrotation Xrotation
				JOINT lfoot    
				{
					OFFSET 0.0000 -38.2947 0.0000
					CHANNELS 3 Zrotation Yrotation Xrotation
					JOINT ltoes    
					{
						OFFSET 0.0000 0.0000 16.6054
						CHANNELS 3 Zrotation Yrotation Xrotation
						End Site
						{
							OFFSET 0.0000 0.0000 5.5351
						}
					}
				}
			}
		}
	}
}
MOTION
Frames: 13
Frame Time: .0333333
169.13 87.838 14.976 89.1564 -84.2581 -59.9309 0 -0 0 -7.98221 -3.90043 -4.782 6.48031 -0.634999 3.78101e-07 23.3106 53.9327 -10.9771 -0 57.362 -0 -17.9492 10.3842 -1.64434 0.256701 8.91062 -1.98829e-07 -2.21998 -55.2201 -5.99471 0 -59.7266 0 1.3995 -3.02902 -0.0370002 -1.76927 0.00760972 -18.8356 -4.77143 -4.79402 -6.23124 -0 -0 12.7274 -2.13697e-06 1.15371 23.8064 0.4658 3.72652e-07 -73.0886 -8.06616 3.63331 -51.2882 -0 -0 54.5388 -2.11477e-06 11.8311 5.1081 1.06851 3.63164e-06 -35.3243 
167.89 88.158 14.965 90.9058 -84.377 -61.5256 0 -0 0 -8.48719 -3.73587 -4.82897 5.84963 -1.1051 -2.18888e-07 22.1365 54.2674 -11.3021 -0 57.8245 -0 -19.0688 10.2283 -1.72238 0.734711 9.76153 6.41754e-07 -0.648048 -56.4973 -8.97436 0 -60.1737 0 -0.168596 -1.8716 0.0027999 -0.813597 0.202203 -19.1206 -4.95061 -4.73058 -6.15675 -0 -0 13.2833 4.60383e-06 0.948694 25.3628 0.406401 7.30177e-07 -72.2455 -8.49029 3.93007 -51.1481 -0 -0 51.9456 -2.6885e-06 11.1769 5.21603 1.02911 -3.435e-06 -36.084 
166.66 88.416 14.946 92.2765 -84.4923 -62.7413 0 -0 0 -8.95854 -3.6452 -4.88423 5.28038 -1.59594 2.63729e-06 20.9405 54.6006 -11.5672 -0 58.2388 -0 -20.1201 10.1035 -1.79699 1.14771 10.5779 2.21758e-07 1.05451 -57.6862 -12.1373 4.3918e-07 -60.6235 -7.51227e-07 -1.48091 -0.761595 0.00980009 0.135095 0.408907 -19.4134 -5.08808 -4.53227 -6.14366 -0 -0 14.1075 -7.33683e-07 0.133298 26.4046 0.0592999 1.40157e-07 -71.2317 -8.83953 4.1722 -50.9732 -0 -0 49.2988 -3.97331e-06 10.495 5.21736 0.965111 -8.18505e-06 -36.7307 
165.43 88.609 14.92 93.2311 -84.6334 -63.5369 0 -0 0 -9.38241 -3.62575 -4.962 4.78423 -2.09599 4.33494e-07 19.6823 54.9342 -11.7816 -0 58.5905 -0 -21.1072 10.0172 -1.87085 1.47749 11.3431 -2.28421e-06 2.93781 -58.7704 -15.4846 6.33735e-07 -61.0589 -1.07461e-06 -2.48538 0.244996 -0.0052999 1.05995 0.622187 -19.7014 -5.17792 -4.23982 -6.22475 -0 -0 15.2755 -1.20006e-06 -1.20118 26.8834 -0.543203 -3.42973e-06 -69.7665 -9.10071 4.34712 -50.7734 -0 -0 46.6306 -3.95781e-06 9.79989 5.15961 0.889905 4.22774e-06 -37.3321 
164.19 88.731 14.888 93.6477 -84.7749 -63.8129 0 -0 0 -9.75205 -3.68133 -5.04235 4.36216 -2.58647 1.94409e-07 18.3681 55.2638 -11.9724 -0 58.8795 -0 -21.9988 9.97808 -1.94416 1.70277 12.0488 -2.53501e-06 5.06462 -59.7534 -19.0333 6.45188e-07 -61.4438 -1.08568e-06 -3.15526 1.059 -0.0291996 1.94871 0.837298 -19.9789 -5.22209 -3.88388 -6.34306 -0 -0 16.7243 1.07193e-05 -2.94588 26.8764 -1.33271 2.70104e-06 -68.1741 -9.26163 4.43433 -50.5188 -0 -0 43.9715 -3.97507e-06 9.11771 5.07656 0.813586 3.07209e-06 -37.8019 
162.94 88.776 14.847 93.4174 -84.9702 -63.48 0 -0 0 -10.0426 -3.80419 -5.11383 4.01606 -3.05174 7.3644e-07 16.9678 55.5885 -12.159 -5.79698e-07 59.0971 -1.02259e-06 -22.8057 9.98315 -2.0184 1.80462 12.6863 -7.00716e-06 7.48761 -60.6279 -22.8047 0 -61.7554 0 -3.48171 1.63338 -0.0495993 2.78774 1.0518 -20.2399 -5.20549 -3.47301 -6.47045 -0 -0 18.4206 1.17173e-05 -4.96175 26.4619 -2.21541 -3.25658e-05 -66.4996 -9.30026 4.43619 -50.2007 -0 -0 41.3821 -1.06738e-06 8.47807 4.99912 0.74421 3.75826e-06 -38.1323 
161.68 88.741 14.803 92.6847 -85.1739 -62.6865 0 -0 0 -10.2699 -3.98378 -5.17265 3.74719 -3.47763 -9.75737e-07 15.4581 55.9056 -12.3648 -5.83251e-07 59.2342 -1.026e-06 -23.5437 10.0197 -2.09322 1.78278 13.248 -5.61556e-06 10.2382 -61.3798 -26.8211 4.6767e-07 -61.9711 -7.78783e-07 -3.48007 1.93913 -0.0588998 3.57565 1.2632 -20.4798 -5.15527 -3.07454 -6.61704 -0 -0 20.3923 7.30278e-05 -7.01852 25.6795 -3.0539 -1.86624e-05 -64.6563 -9.22492 4.33856 -49.8165 -0 -0 38.9187 1.00099e-05 7.93783 4.94477 0.688602 7.58138e-07 -38.2874 
160.4 88.621 14.753 91.3368 -85.4168 -61.3389 0 -0 0 -10.41 -4.20893 -5.19994 3.54845 -3.85172 1.02445e-06 13.8207 56.2117 -12.6051 -0 59.2847 -0 -24.2277 10.0661 -2.16582 1.63438 13.7326 -2.06705e-06 13.332 -62.0092 -31.1001 4.69745e-07 -62.0647 -7.80794e-07 -3.18937 1.96986 -0.0548007 4.30761 1.4715 -20.6983 -5.05294 -2.66913 -6.73766 -0 -0 22.5619 -2.38387e-05 -8.99966 24.6773 -3.78294 -1.97166e-05 -62.9243 -9.01791 4.1595 -49.3647 -0 -0 36.6701 1.19427e-06 7.5275 4.89312 0.645812 -1.31712e-06 -38.2389 
159.1 88.412 14.702 89.497 -85.6776 -59.5617 0 -0 0 -10.4855 -4.46796 -5.19417 3.41411 -4.16612 6.06636e-07 12.0405 56.4998 -12.8925 -0 59.2443 -0 -24.8803 10.0894 -2.23117 1.38195 14.1386 -4.03028e-06 16.7466 -62.5086 -35.6443 4.68653e-07 -62.015 -7.7974e-07 -2.66625 1.74688 -0.0407006 4.99351 1.67538 -20.8966 -4.92761 -2.29453 -6.84568 -0 -0 24.9353 -8.21097e-06 -10.7303 23.5239 -4.32535 -1.9201e-05 -61.2916 -8.69857 3.89872 -48.8587 -0 -0 34.7167 2.76335e-06 7.29389 4.8079 0.614595 5.15318e-07 -37.9632 
157.79 88.115 14.654 87.2374 -85.9562 -57.4275 0 -0 0 -10.5134 -4.75199 -5.15187 3.33508 -4.41759 -4.83933e-06 10.1092 56.7585 -13.223 -0 59.1119 -0 -25.5077 10.0507 -2.28049 1.05598 14.4696 1.28687e-06 20.4405 -62.8856 -40.4509 0 -61.8079 0 -1.98037 1.31214 -0.0227002 5.64495 1.87387 -21.0759 -4.79887 -1.96087 -6.94288 -0 -0 27.4911 8.49731e-05 -12.1016 22.3046 -4.6524 2.97399e-05 -59.8121 -8.28734 3.56769 -48.3203 -0 -0 33.1451 -4.67454e-06 7.2626 4.62731 0.588997 -5.78091e-06 -37.4496 
156.46 87.73 14.604 84.4487 -86.2584 -54.8277 0 -0 0 -10.4821 -5.05288 -5.06512 3.2944 -4.60847 -2.11669e-06 8.02831 56.9849 -13.5883 -0 58.8851 -0 -26.1124 9.90739 -2.303 0.686293 14.7338 1.91092e-06 24.3527 -63.1465 -45.51 0 -61.4277 0 -1.20561 0.719298 -0.00760016 6.27125 2.06759 -21.2438 -4.65084 -1.63094 -7.01417 -0 -0 30.1605 1.63077e-05 -13.1112 21.1405 -4.80166 -3.97404e-06 -58.8628 -7.79477 3.20677 -47.7805 -0 -0 32.0477 5.7898e-06 7.41657 4.26785 0.555014 -5.1478e-06 -36.6949 
155.13 87.26 14.556 81.1169 -86.5804 -51.7449 0 -0 0 -10.4139 -5.36638 -4.93121 3.27741 -4.7453 3.44307e-06 5.81166 57.1648 -13.9715 -0 58.5786 -0 -26.6734 9.61578 -2.28463 0.3205 14.9438 -5.38586e-07 28.4024 -63.3119 -50.8009 -7.55987e-07 -60.8628 4.44098e-07 -0.414907 0.0232996 -0.000100013 6.88861 2.2554 -21.405 -4.50277 -1.31469 -7.06946 -0 -0 32.9266 0.000102361 -13.7238 20.0616 -4.7889 2.74355e-05 -58.4184 -7.25672 2.84049 -47.2643 -0 -0 31.4893 1.00748e-05 7.73759 3.65208 0.495895 -7.59719e-06 -35.6982 
153.81 86.71 14.524 77.9373 -86.8585 -48.8325 0 -0 0 -10.3817 -5.68514 -4.78644 3.26866 -4.84042 -7.82419e-06 3.4847 57.2833 -14.3252 -0 58.1979 -0 -27.1653 9.13882 -2.21243 0.0194995 15.101 -1.50039e-07 32.4996 -63.3942 -56.2866 0 -60.1177 0 0.354093 -0.706598 -0.00219994 7.52062 2.43188 -21.5576 -4.43535 -1.06211 -7.19774 -0 -0 35.8644 0.000105643 -13.8728 19.0085 -4.59915 6.5567e-05 -58.0884 -6.73833 2.45553 -46.8169 -0 -0 31.4809 2.88206e-06 8.23905 2.73806 0.396305 -5.98626e-07 -34.4702 
